name baseline.mot
datacolumns 19
datarows 15
range 3.91832100000000 3.94165100000000
endheader
time	ground_force1_vx	ground_force1_vy	ground_force1_vz	ground_force1_px	ground_force1_py	ground_force1_pz	ground_force2_vx	ground_force2_vy	ground_force2_vz	ground_force2_px	ground_force2_py	ground_force2_pz	ground_torque1_x	ground_torque1_y	ground_torque1_z	ground_torque2_x	ground_torque2_y	ground_torque2_z	
3.91832100000000	23.72235600000000	689.46202700000003	41.51402100000000	0.09564700000000	0.00000000000000	0.09673900000000	0.00000000000000	0.00000000000000	0.00000000000000	0.00000000000000	0.00000000000000	0.00000000000000	0.00000000000000	3.26809200000000	0.00000000000000	0.00000000000000	0.00000000000000	0.00000000000000	
3.91999700000000	23.22554000000000	689.97662200000002	41.52505400000000	0.09457400000000	0.00000000000000	0.09668500000000	0.00000000000000	0.00000000000000	0.00000000000000	0.00000000000000	0.00000000000000	0.00000000000000	0.00000000000000	3.29664500000000	0.00000000000000	0.00000000000000	0.00000000000000	0.00000000000000	
3.92164700000000	22.72455300000000	690.52823500000000	41.54223700000000	0.09349600000000	0.00000000000000	0.09663300000000	0.00000000000000	0.00000000000000	0.00000000000000	0.00000000000000	0.00000000000000	0.00000000000000	0.00000000000000	3.32719300000000	0.00000000000000	0.00000000000000	0.00000000000000	0.00000000000000	
3.92332100000000	22.21949800000000	691.11564599999997	41.56515800000000	0.09241200000000	0.00000000000000	0.09658100000000	0.00000000000000	0.00000000000000	0.00000000000000	0.00000000000000	0.00000000000000	0.00000000000000	0.00000000000000	3.35969200000000	0.00000000000000	0.00000000000000	0.00000000000000	0.00000000000000	
3.92498100000000	21.71047800000000	691.73765900000001	41.59340300000000	0.09132500000000	0.00000000000000	0.09652900000000	0.00000000000000	0.00000000000000	0.00000000000000	0.00000000000000	0.00000000000000	0.00000000000000	0.00000000000000	3.39410000000000	0.00000000000000	0.00000000000000	0.00000000000000	0.00000000000000	
3.92665000000000	21.19758600000000	692.39310300000000	41.62656400000000	0.09023500000000	0.00000000000000	0.09647900000000	0.00000000000000	0.00000000000000	0.00000000000000	0.00000000000000	0.00000000000000	0.00000000000000	0.00000000000000	3.43037600000000	0.00000000000000	0.00000000000000	0.00000000000000	0.00000000000000	
3.92832300000000	20.68091200000000	693.08083699999997	41.66423400000000	0.08914300000000	0.00000000000000	0.09642800000000	0.00000000000000	0.00000000000000	0.00000000000000	0.00000000000000	0.00000000000000	0.00000000000000	0.00000000000000	3.46847900000000	0.00000000000000	0.00000000000000	0.00000000000000	0.00000000000000	
3.92999800000000	20.16053500000000	693.79974900000002	41.70601300000000	0.08805000000000	0.00000000000000	0.09637800000000	0.00000000000000	0.00000000000000	0.00000000000000	0.00000000000000	0.00000000000000	0.00000000000000	0.00000000000000	3.50837400000000	0.00000000000000	0.00000000000000	0.00000000000000	0.00000000000000	
3.93164700000000	19.63652700000000	694.54875500000003	41.75150800000000	0.08695700000000	0.00000000000000	0.09632900000000	0.00000000000000	0.00000000000000	0.00000000000000	0.00000000000000	0.00000000000000	0.00000000000000	0.00000000000000	3.55002600000000	0.00000000000000	0.00000000000000	0.00000000000000	0.00000000000000	
3.93331500000000	19.10894700000000	695.32680700000003	41.80033300000000	0.08586500000000	0.00000000000000	0.09627900000000	0.00000000000000	0.00000000000000	0.00000000000000	0.00000000000000	0.00000000000000	0.00000000000000	0.00000000000000	3.59340000000000	0.00000000000000	0.00000000000000	0.00000000000000	0.00000000000000	
3.93498500000000	18.57784300000000	696.13288399999999	41.85211200000000	0.08477300000000	0.00000000000000	0.09623000000000	0.00000000000000	0.00000000000000	0.00000000000000	0.00000000000000	0.00000000000000	0.00000000000000	0.00000000000000	3.63846800000000	0.00000000000000	0.00000000000000	0.00000000000000	0.00000000000000	
3.93665500000000	18.04325100000000	696.96600100000001	41.90648100000000	0.08368400000000	0.00000000000000	0.09618100000000	0.00000000000000	0.00000000000000	0.00000000000000	0.00000000000000	0.00000000000000	0.00000000000000	0.00000000000000	3.68520000000000	0.00000000000000	0.00000000000000	0.00000000000000	0.00000000000000	
3.93831500000000	17.50519200000000	697.82520399999999	41.96308500000000	0.08259800000000	0.00000000000000	0.09613200000000	0.00000000000000	0.00000000000000	0.00000000000000	0.00000000000000	0.00000000000000	0.00000000000000	0.00000000000000	3.73357100000000	0.00000000000000	0.00000000000000	0.00000000000000	0.00000000000000	
3.93999500000000	16.96367500000000	698.70956799999999	42.02158600000000	0.08151400000000	0.00000000000000	0.09608300000000	0.00000000000000	0.00000000000000	0.00000000000000	0.00000000000000	0.00000000000000	0.00000000000000	0.00000000000000	3.78355600000000	0.00000000000000	0.00000000000000	0.00000000000000	0.00000000000000	
3.94165100000000	16.41869300000000	699.61820299999999	42.08165800000000	0.08043400000000	0.00000000000000	0.09603400000000	0.00000000000000	0.00000000000000	0.00000000000000	0.00000000000000	0.00000000000000	0.00000000000000	0.00000000000000	3.83513500000000	0.00000000000000	0.00000000000000	0.00000000000000	0.00000000000000	
